<?xml version="1.0" encoding="UTF-8" standalone="no"?>
<svg
   xmlns:dc="http://purl.org/dc/elements/1.1/"
   xmlns:cc="http://creativecommons.org/ns#"
   xmlns:rdf="http://www.w3.org/1999/02/22-rdf-syntax-ns#"
   xmlns:svg="http://www.w3.org/2000/svg"
   xmlns="http://www.w3.org/2000/svg"
   xmlns:sodipodi="http://sodipodi.sourceforge.net/DTD/sodipodi-0.dtd"
   xmlns:inkscape="http://www.inkscape.org/namespaces/inkscape"
   version="1.0"
   width="779.29718"
   height="715.9585"
   viewBox="22 40 779.29718 715.9585"
   id="svg2"
   inkscape:version="0.48.5 r10040"
   sodipodi:docname="Camelia.svg">
  <metadata
     id="metadata103">
    <rdf:RDF>
      <cc:Work
         rdf:about="">
        <dc:format>image/svg+xml</dc:format>
        <dc:type
           rdf:resource="http://purl.org/dc/dcmitype/StillImage" />
      </cc:Work>
    </rdf:RDF>
  </metadata>
  <sodipodi:namedview
     pagecolor="#ffffff"
     bordercolor="#666666"
     borderopacity="1"
     objecttolerance="10"
     gridtolerance="10"
     guidetolerance="10"
     inkscape:pageopacity="0"
     inkscape:pageshadow="2"
     inkscape:window-width="738"
     inkscape:window-height="602"
     id="namedview101"
     showgrid="false"
     inkscape:zoom="0.34054834"
     inkscape:cx="309.37266"
     inkscape:cy="350.31404"
     inkscape:window-x="0"
     inkscape:window-y="27"
     inkscape:window-maximized="0"
     inkscape:current-layer="svg2"
     fit-margin-top="0.3"
     fit-margin-left="0.3"
     fit-margin-right="0.3"
     fit-margin-bottom="0.3"
     units="in"
     inkscape:showpageshadow="false" />
  <defs
     id="defs4">
    <clipPath
       id="clipPath17">
      <path
         d="m 0,-0.1 792.1,0 0,612.1 L 0,612 0,-0.1 z"
         id="path19"
         inkscape:connector-curvature="0" />
    </clipPath>
  </defs>
  <g
     id="g13"
     transform="matrix(1.0041452,0.28112517,0.26905988,-1.0491734,-101.49762,610.67249)">
    <g
       id="g15"
       clip-path="url(#clipPath17)">
      <path
         inkscape:connector-curvature="0"
         style="fill:#000000;fill-opacity:1;fill-rule:evenodd;stroke:none"
         id="path21"
         d="M 304.2,75.7 C 248.8,35.1 174.7,42.1 138.6,91.4 c -36,49.2 -20.3,122 35.1,162.5 55.3,40.6 129.5,33.6 165.5,-15.6 36.1,-49.3 20.4,-122.1 -35,-162.6 z" />
      <g
         id="g23">
        <path
           inkscape:connector-curvature="0"
           style="fill:none;stroke:#000000;stroke-width:4.30158997;stroke-linecap:butt;stroke-linejoin:round;stroke-miterlimit:10;stroke-opacity:1;stroke-dasharray:none"
           id="path25"
           d="M 304.2,75.7 C 248.8,35.1 174.7,42.1 138.6,91.4 c -36,49.2 -20.3,122 35.1,162.5 55.3,40.6 129.5,33.6 165.5,-15.6 36.1,-49.3 20.4,-122.1 -35,-162.6 z" />
      </g>
      <path
         inkscape:connector-curvature="0"
         style="fill:#000000;fill-opacity:1;fill-rule:evenodd;stroke:none"
         id="path27"
         d="m 273.6,523.5 c 68.9,-50.4 88.4,-140.9 43.5,-202.1 -44.8,-61.2 -137,-69.9 -205.8,-19.5 -68.9,50.4 -88.4,141 -43.6,202.2 44.9,61.2 137,69.9 205.9,19.4 z" />
      <g
         id="g29">
        <path
           inkscape:connector-curvature="0"
           style="fill:none;stroke:#000000;stroke-width:7.1882;stroke-linecap:butt;stroke-linejoin:round;stroke-miterlimit:10;stroke-opacity:1;stroke-dasharray:none"
           id="path31"
           d="m 273.6,523.5 c 68.9,-50.4 88.4,-140.9 43.5,-202.1 -44.8,-61.2 -137,-69.9 -205.8,-19.5 -68.9,50.4 -88.4,141 -43.6,202.2 44.9,61.2 137,69.9 205.9,19.4 z" />
      </g>
      <path
         inkscape:connector-curvature="0"
         style="fill:#00ff00;fill-opacity:1;fill-rule:evenodd;stroke:none"
         id="path33"
         d="m 213.3,370.5 c -25.8,21.2 -27.3,62.2 -3.3,91.4 24.1,29.3 64.5,35.9 90.3,14.6 25.9,-21.2 27.4,-62.1 3.3,-91.4 -24,-29.3 -64.4,-35.8 -90.3,-14.6 z" />
      <g
         id="g35">
        <path
           inkscape:connector-curvature="0"
           style="fill:none;stroke:none"
           id="path37"
           d="m 213.3,370.5 c -25.8,21.2 -27.3,62.2 -3.3,91.4 24.1,29.3 64.5,35.9 90.3,14.6 25.9,-21.2 27.4,-62.1 3.3,-91.4 -24,-29.3 -64.4,-35.8 -90.3,-14.6 z" />
      </g>
      <path
         inkscape:connector-curvature="0"
         style="fill:#000000;fill-opacity:1;fill-rule:evenodd;stroke:none"
         id="path39"
         d="m 191.7,375.8 c -25.9,21.3 -27.4,62.2 -3.4,91.5 24.1,29.3 64.6,35.8 90.4,14.6 25.9,-21.2 27.4,-62.2 3.3,-91.5 -24,-29.3 -64.5,-35.8 -90.3,-14.6 z" />
      <g
         id="g41">
        <path
           inkscape:connector-curvature="0"
           style="fill:none;stroke:none"
           id="path43"
           d="m 191.7,375.8 c -25.9,21.3 -27.4,62.2 -3.4,91.5 24.1,29.3 64.6,35.8 90.4,14.6 25.9,-21.2 27.4,-62.2 3.3,-91.5 -24,-29.3 -64.5,-35.8 -90.3,-14.6 z" />
      </g>
      <g
         id="g45">
        <path
           inkscape:connector-curvature="0"
           style="fill:none;stroke:#0000ff;stroke-width:21.56459045;stroke-linecap:butt;stroke-linejoin:round;stroke-miterlimit:10;stroke-opacity:1;stroke-dasharray:none"
           id="path47"
           d="m 245.6,311.6 c -41.6,27.7 -99.1,49.2 -123.8,86.2 -18.4,27.5 -39.3,38.3 -17.3,65.5 21,25.7 32.7,53.3 61.9,57.9 32.8,-4.4 58.3,-7.3 79.3,-43.8 -2.4,-21.4 4.8,-66.6 -23,-88.1 l -48.1,-26.7" />
      </g>
      <path
         inkscape:connector-curvature="0"
         style="fill:#ff3366;fill-opacity:1;fill-rule:evenodd;stroke:none"
         id="path49"
         d="m 175,400.5 c -23.8,0 -43.1,18.9 -43.1,42.3 0,23.4 19.3,42.3 43.1,42.3 23.8,0 43.1,-18.9 43.1,-42.3 0,-23.4 -19.3,-42.3 -43.1,-42.3 z" />
      <g
         id="g51">
        <path
           inkscape:connector-curvature="0"
           style="fill:none;stroke:none"
           id="path53"
           d="m 175,400.5 c -23.8,0 -43.1,18.9 -43.1,42.3 0,23.4 19.3,42.3 43.1,42.3 23.8,0 43.1,-18.9 43.1,-42.3 0,-23.4 -19.3,-42.3 -43.1,-42.3 z" />
      </g>
      <path
         inkscape:connector-curvature="0"
         style="fill:#0000ff;fill-opacity:1;fill-rule:evenodd;stroke:none"
         id="path55"
         d="m 194.2,418.9 c -8.9,-7.3 -22.2,-5.9 -29.7,3.2 -7.5,9.1 -6.3,22.4 2.7,29.7 8.9,7.3 22.2,5.9 29.6,-3.2 7.5,-9.1 6.3,-22.4 -2.6,-29.7 z" />
      <g
         id="g57">
        <path
           inkscape:connector-curvature="0"
           style="fill:none;stroke:none"
           id="path59"
           d="m 194.2,418.9 c -8.9,-7.3 -22.2,-5.9 -29.7,3.2 -7.5,9.1 -6.3,22.4 2.7,29.7 8.9,7.3 22.2,5.9 29.6,-3.2 7.5,-9.1 6.3,-22.4 -2.6,-29.7 z" />
      </g>
      <g
         id="g61">
        <path
           inkscape:connector-curvature="0"
           style="fill:none;stroke:#0000ff;stroke-width:21.56459045;stroke-linecap:butt;stroke-linejoin:round;stroke-miterlimit:10;stroke-opacity:1;stroke-dasharray:none"
           id="path63"
           d="m 249.3,308.8 c -41.7,27.8 -104.7,27.8 -129.4,64.7 -18.4,27.6 -50.3,63.1 -28.3,90.2 20.1,31.9 45.6,53.8 77.5,53.8 32.9,-4.3 66.7,-17 74.7,-42.8 -2.3,-21.5 2.1,-55.4 -25.7,-76.9 l -45.3,-36.1" />
      </g>
      <path
         inkscape:connector-curvature="0"
         style="fill:#0000ff;fill-opacity:1;fill-rule:evenodd;stroke:none"
         id="path65"
         d="m 268,298 c -2.9,-5.1 -15.3,-3.4 -27.6,3.7 -12.4,7.1 -20,17 -17.1,22.1 3,5 15.3,3.4 27.7,-3.7 12.3,-7.2 20,-17 17,-22.1 z" />
      <g
         id="g67">
        <path
           inkscape:connector-curvature="0"
           style="fill:none;stroke:none"
           id="path69"
           d="m 268,298 c -2.9,-5.1 -15.3,-3.4 -27.6,3.7 -12.4,7.1 -20,17 -17.1,22.1 3,5 15.3,3.4 27.7,-3.7 12.3,-7.2 20,-17 17,-22.1 z" />
      </g>
      <path
         inkscape:connector-curvature="0"
         style="fill:#000000;fill-opacity:1;fill-rule:evenodd;stroke:none"
         id="path71"
         d="M 629.1,253 C 684.4,212.5 700.1,139.6 664,90.4 627.9,41.1 553.8,34.1 498.4,74.6 c -55.3,40.6 -71,113.4 -34.9,162.6 36.1,49.3 110.2,56.4 165.6,15.8 z" />
      <g
         id="g73">
        <path
           inkscape:connector-curvature="0"
           style="fill:none;stroke:#000000;stroke-width:4.30158997;stroke-linecap:butt;stroke-linejoin:round;stroke-miterlimit:10;stroke-opacity:1;stroke-dasharray:none"
           id="path75"
           d="M 629.1,253 C 684.4,212.5 700.1,139.6 664,90.4 627.9,41.1 553.8,34.1 498.4,74.6 c -55.3,40.6 -71,113.4 -34.9,162.6 36.1,49.3 110.2,56.4 165.6,15.8 z" />
      </g>
      <path
         inkscape:connector-curvature="0"
         style="fill:#ffff00;fill-opacity:1;fill-rule:evenodd;stroke:none"
         id="path77"
         d="m 399.5,162 c -64,0 -115.8,41.4 -115.8,92.6 0,51.1 51.8,92.6 115.8,92.6 64,0 115.8,-41.5 115.8,-92.6 0,-51.2 -51.8,-92.6 -115.8,-92.6 z" />
      <g
         id="g79">
        <path
           inkscape:connector-curvature="0"
           style="fill:none;stroke:#000000;stroke-width:8.63150024;stroke-linecap:butt;stroke-linejoin:round;stroke-miterlimit:10;stroke-opacity:1;stroke-dasharray:none"
           id="path81"
           d="m 399.5,162 c -64,0 -115.8,41.4 -115.8,92.6 0,51.1 51.8,92.6 115.8,92.6 64,0 115.8,-41.5 115.8,-92.6 0,-51.2 -51.8,-92.6 -115.8,-92.6 z" />
      </g>
      <path
         inkscape:connector-curvature="0"
         style="fill:#ffffff;fill-opacity:1;fill-rule:evenodd;stroke:none"
         id="path83"
         d="m 320.1,255.7 c -25.6,0 -46.3,20.8 -46.3,46.3 0,25.6 20.7,46.3 46.3,46.3 25.6,0 46.4,-20.7 46.4,-46.3 0,-25.5 -20.8,-46.3 -46.4,-46.3 z" />
      <g
         id="g85">
        <path
           inkscape:connector-curvature="0"
           style="fill:none;stroke:#000000;stroke-width:10.07479;stroke-linecap:butt;stroke-linejoin:round;stroke-miterlimit:10;stroke-opacity:1;stroke-dasharray:none"
           id="path87"
           d="m 320.1,255.7 c -25.6,0 -46.3,20.8 -46.3,46.3 0,25.6 20.7,46.3 46.3,46.3 25.6,0 46.4,-20.7 46.4,-46.3 0,-25.5 -20.8,-46.3 -46.4,-46.3 z" />
      </g>
      <path
         inkscape:connector-curvature="0"
         style="fill:#000000;fill-opacity:1;fill-rule:evenodd;stroke:none"
         id="path89"
         d="m 683.4,296.3 c -68.4,-50.1 -160,-41.4 -204.5,19.4 -44.6,60.8 -25.2,150.7 43.2,200.9 68.4,50.1 160,41.4 204.5,-19.4 44.6,-60.9 25.2,-150.8 -43.2,-200.9 z" />
      <g
         id="g91">
        <path
           inkscape:connector-curvature="0"
           style="fill:none;stroke:#000000;stroke-width:7.1882;stroke-linecap:butt;stroke-linejoin:round;stroke-miterlimit:10;stroke-opacity:1;stroke-dasharray:none"
           id="path93"
           d="m 683.4,296.3 c -68.4,-50.1 -160,-41.4 -204.5,19.4 -44.6,60.8 -25.2,150.7 43.2,200.9 68.4,50.1 160,41.4 204.5,-19.4 44.6,-60.9 25.2,-150.8 -43.2,-200.9 z" />
      </g>
      <path
         inkscape:connector-curvature="0"
         style="fill:#00ff00;fill-opacity:1;fill-rule:evenodd;stroke:none"
         id="path95"
         d="m 698.5,335.2 c -25.7,-21.1 -65.9,-14.5 -89.8,14.6 -23.9,29.1 -22.5,69.8 3.2,90.9 25.7,21.1 65.9,14.6 89.8,-14.6 23.9,-29.1 22.5,-69.8 -3.2,-90.9 z" />
      <g
         id="g97">
        <path
           inkscape:connector-curvature="0"
           style="fill:none;stroke:none"
           id="path99"
           d="m 698.5,335.2 c -25.7,-21.1 -65.9,-14.5 -89.8,14.6 -23.9,29.1 -22.5,69.8 3.2,90.9 25.7,21.1 65.9,14.6 89.8,-14.6 23.9,-29.1 22.5,-69.8 -3.2,-90.9 z" />
      </g>
      <path
         inkscape:connector-curvature="0"
         style="fill:#000000;fill-opacity:1;fill-rule:evenodd;stroke:none"
         id="path101"
         d="m 677.1,335.2 c -25.7,-21.1 -65.9,-14.5 -89.8,14.6 -23.9,29.1 -22.5,69.8 3.2,90.8 25.7,21.1 65.9,14.6 89.8,-14.5 23.9,-29.1 22.4,-69.8 -3.2,-90.9 z" />
      <g
         id="g103">
        <path
           inkscape:connector-curvature="0"
           style="fill:none;stroke:none"
           id="path105"
           d="m 677.1,335.2 c -25.7,-21.1 -65.9,-14.5 -89.8,14.6 -23.9,29.1 -22.5,69.8 3.2,90.8 25.7,21.1 65.9,14.6 89.8,-14.5 23.9,-29.1 22.4,-69.8 -3.2,-90.9 z" />
      </g>
      <g
         id="g107">
        <path
           inkscape:connector-curvature="0"
           style="fill:none;stroke:#0000ff;stroke-width:21.56459045;stroke-linecap:butt;stroke-linejoin:round;stroke-miterlimit:10;stroke-opacity:1;stroke-dasharray:none"
           id="path109"
           d="m 705.7,464.7 c -18,58.1 -98.5,38.2 -128.5,18.1 -41.4,-27.6 -36.2,-22.1 -60.7,-58.8 -18.3,-27.5 -8.4,-63.6 13.5,-90.6 20.7,-25.6 29,-13.8 61.6,-9.5 32.6,4.3 41.5,5.4 49.4,31 9.9,32.1 -22.1,65.3 -49.7,86.6 L 560.2,463" />
      </g>
      <path
         inkscape:connector-curvature="0"
         style="fill:#ff3366;fill-opacity:1;fill-rule:evenodd;stroke:none"
         id="path111"
         d="m 569.2,345.3 c -21,0 -37.9,17.2 -37.9,38.5 0,21.3 16.9,38.5 37.9,38.5 20.9,0 37.8,-17.2 37.8,-38.5 0,-21.3 -16.9,-38.5 -37.8,-38.5 z" />
      <g
         id="g113">
        <path
           inkscape:connector-curvature="0"
           style="fill:none;stroke:none"
           id="path115"
           d="m 569.2,345.3 c -21,0 -37.9,17.2 -37.9,38.5 0,21.3 16.9,38.5 37.9,38.5 20.9,0 37.8,-17.2 37.8,-38.5 0,-21.3 -16.9,-38.5 -37.8,-38.5 z" />
      </g>
      <path
         inkscape:connector-curvature="0"
         style="fill:#0000ff;fill-opacity:1;fill-rule:evenodd;stroke:none"
         id="path117"
         d="m 582.5,361.7 c -8.9,-7.2 -22.1,-5.8 -29.5,3.3 -7.4,9 -6.3,22.3 2.5,29.5 8.8,7.3 22.1,5.8 29.5,-3.2 7.4,-9.1 6.3,-22.3 -2.5,-29.6 z" />
      <g
         id="g119">
        <path
           inkscape:connector-curvature="0"
           style="fill:none;stroke:none"
           id="path121"
           d="m 582.5,361.7 c -8.9,-7.2 -22.1,-5.8 -29.5,3.3 -7.4,9 -6.3,22.3 2.5,29.5 8.8,7.3 22.1,5.8 29.5,-3.2 7.4,-9.1 6.3,-22.3 -2.5,-29.6 z" />
      </g>
      <g
         id="g123">
        <path
           inkscape:connector-curvature="0"
           style="fill:none;stroke:#0000ff;stroke-width:21.56459045;stroke-linecap:butt;stroke-linejoin:round;stroke-miterlimit:10;stroke-opacity:1;stroke-dasharray:none"
           id="path125"
           d="m 711.2,466.5 c -18,58.1 -116.7,47.3 -146.7,27.2 -41.4,-27.6 -35.3,-22.2 -59.8,-58.9 -18.3,-27.4 -2,-76.9 19.9,-103.9 20.7,-25.6 35.8,-19.8 68.3,-15.5 32.6,4.3 44,3.5 52,29.2 9.9,32 4,71.5 -23.7,92.9 l -61,25.5" />
      </g>
      <path
         inkscape:connector-curvature="0"
         style="fill:#ffffff;fill-opacity:1;fill-rule:evenodd;stroke:none"
         id="path127"
         d="m 473.4,255.7 c -25.6,0 -46.4,20.8 -46.4,46.3 0,25.6 20.8,46.3 46.4,46.3 25.6,0 46.3,-20.7 46.3,-46.3 0,-25.5 -20.7,-46.3 -46.3,-46.3 z" />
      <g
         id="g129">
        <path
           inkscape:connector-curvature="0"
           style="fill:none;stroke:#000000;stroke-width:10.07479;stroke-linecap:butt;stroke-linejoin:round;stroke-miterlimit:10;stroke-opacity:1;stroke-dasharray:none"
           id="path131"
           d="m 473.4,255.7 c -25.6,0 -46.4,20.8 -46.4,46.3 0,25.6 20.8,46.3 46.4,46.3 25.6,0 46.3,-20.7 46.3,-46.3 0,-25.5 -20.7,-46.3 -46.3,-46.3 z" />
      </g>
      <path
         inkscape:connector-curvature="0"
         style="fill:#000000;fill-opacity:1;fill-rule:evenodd;stroke:none"
         id="path133"
         d="m 321.5,279 c -12.8,0 -23.2,10.4 -23.2,23.2 0,12.8 10.4,23.2 23.2,23.2 12.8,0 23.1,-10.4 23.1,-23.2 0,-12.8 -10.3,-23.2 -23.1,-23.2 z" />
      <g
         id="g135">
        <path
           inkscape:connector-curvature="0"
           style="fill:none;stroke:none"
           id="path137"
           d="m 321.5,279 c -12.8,0 -23.2,10.4 -23.2,23.2 0,12.8 10.4,23.2 23.2,23.2 12.8,0 23.1,-10.4 23.1,-23.2 0,-12.8 -10.3,-23.2 -23.1,-23.2 z" />
      </g>
      <path
         inkscape:connector-curvature="0"
         style="fill:#000000;fill-opacity:1;fill-rule:evenodd;stroke:none"
         id="path139"
         d="m 475.1,281.6 c -12.9,0 -23.2,10.4 -23.2,23.1 0,12.8 10.3,23.1 23.2,23.1 12.8,0 23.1,-10.3 23.1,-23.1 0,-12.7 -10.3,-23.1 -23.1,-23.1 z" />
      <g
         id="g141">
        <path
           inkscape:connector-curvature="0"
           style="fill:none;stroke:none"
           id="path143"
           d="m 475.1,281.6 c -12.9,0 -23.2,10.4 -23.2,23.1 0,12.8 10.3,23.1 23.2,23.1 12.8,0 23.1,-10.3 23.1,-23.1 0,-12.7 -10.3,-23.1 -23.1,-23.1 z" />
      </g>
      <g
         id="g145">
        <path
           inkscape:connector-curvature="0"
           style="fill:none;stroke:#ff3366;stroke-width:12.93309021;stroke-linecap:butt;stroke-linejoin:round;stroke-miterlimit:10;stroke-opacity:1;stroke-dasharray:none"
           id="path147"
           d="m 360,230 c -4.6,-31.7 87.5,-54.6 76.4,-5.4 l 0,2.7" />
      </g>
      <g
         id="g149">
        <path
           inkscape:connector-curvature="0"
           style="fill:none;stroke:#000000;stroke-width:10.07479;stroke-linecap:butt;stroke-linejoin:round;stroke-miterlimit:10;stroke-opacity:1;stroke-dasharray:none"
           id="path151"
           d="m 385.1,348 c -1.9,25.2 7.3,53.8 -4.2,77.1 l -9.7,23.1 -12.6,-21.2 9.7,-1.9" />
      </g>
      <g
         id="g153">
        <path
           inkscape:connector-curvature="0"
           style="fill:none;stroke:#000000;stroke-width:10.07479;stroke-linecap:butt;stroke-linejoin:round;stroke-miterlimit:10;stroke-opacity:1;stroke-dasharray:none"
           id="path155"
           d="m 413.3,348 c 1.9,25.2 -7.4,53.8 4.1,77.1 l 9.7,23.1 12.6,-21.2 -9.7,-1.9" />
      </g>
      <path
         inkscape:connector-curvature="0"
         style="fill:#ff3366;fill-opacity:1;fill-rule:evenodd;stroke:none"
         id="path157"
         d="m 181.1,99.3 c -26.6,21.9 -27.5,64.8 -2,96 25.6,31.1 67.9,38.6 94.6,16.7 26.6,-21.9 27.5,-64.8 1.9,-95.9 C 250.1,84.9 207.8,77.4 181.1,99.3 z" />
      <g
         id="g159">
        <path
           inkscape:connector-curvature="0"
           style="fill:none;stroke:none"
           id="path161"
           d="m 181.1,99.3 c -26.6,21.9 -27.5,64.8 -2,96 25.6,31.1 67.9,38.6 94.6,16.7 26.6,-21.9 27.5,-64.8 1.9,-95.9 C 250.1,84.9 207.8,77.4 181.1,99.3 z" />
      </g>
      <g
         id="g163">
        <path
           inkscape:connector-curvature="0"
           style="fill:none;stroke:#000000;stroke-width:8.63150024;stroke-linecap:butt;stroke-linejoin:round;stroke-miterlimit:10;stroke-opacity:1;stroke-dasharray:none"
           id="path165"
           d="m 375.5,161 0,-29.9 16.4,-27.2 0,0" />
      </g>
      <g
         id="g167">
        <path
           inkscape:connector-curvature="0"
           style="fill:none;stroke:#000000;stroke-width:8.63150024;stroke-linecap:butt;stroke-linejoin:round;stroke-miterlimit:10;stroke-opacity:1;stroke-dasharray:none"
           id="path169"
           d="m 412,161 0,-30 16.4,-27.2 0,0" />
      </g>
      <path
         inkscape:connector-curvature="0"
         style="fill:#0000ff;fill-opacity:1;fill-rule:evenodd;stroke:none"
         id="path171"
         d="m 212.3,134.8 c -12,9.8 -10.1,32 4.3,49.5 14.4,17.6 35.7,23.8 47.8,13.9 11.9,-9.8 10,-32 -4.3,-49.6 -14.4,-17.5 -35.8,-23.7 -47.8,-13.8 z" />
      <g
         id="g173">
        <path
           inkscape:connector-curvature="0"
           style="fill:none;stroke:none"
           id="path175"
           d="m 212.3,134.8 c -12,9.8 -10.1,32 4.3,49.5 14.4,17.6 35.7,23.8 47.8,13.9 11.9,-9.8 10,-32 -4.3,-49.6 -14.4,-17.5 -35.8,-23.7 -47.8,-13.8 z" />
      </g>
      <path
         inkscape:connector-curvature="0"
         style="fill:#ff3366;fill-opacity:1;fill-rule:evenodd;stroke:none"
         id="path177"
         d="M 616.6,99.2 C 589.9,77.3 547.6,84.8 522,116 c -25.5,31.1 -24.6,74.1 2,95.9 26.7,21.9 69,14.4 94.6,-16.7 25.5,-31.2 24.6,-74.1 -2,-96 z" />
      <g
         id="g179">
        <path
           inkscape:connector-curvature="0"
           style="fill:none;stroke:none"
           id="path181"
           d="M 616.6,99.2 C 589.9,77.3 547.6,84.8 522,116 c -25.5,31.1 -24.6,74.1 2,95.9 26.7,21.9 69,14.4 94.6,-16.7 25.5,-31.2 24.6,-74.1 -2,-96 z" />
      </g>
      <path
         inkscape:connector-curvature="0"
         style="fill:#0000ff;fill-opacity:1;fill-rule:evenodd;stroke:none"
         id="path183"
         d="m 581.8,132 c -12,-9.8 -33.4,-3.6 -47.7,13.8 -14.4,17.5 -16.3,39.7 -4.2,49.5 11.9,9.9 33.3,3.7 47.7,-13.8 14.3,-17.4 16.2,-39.6 4.2,-49.5 z" />
      <g
         id="g185">
        <path
           inkscape:connector-curvature="0"
           style="fill:none;stroke:none"
           id="path187"
           d="m 581.8,132 c -12,-9.8 -33.4,-3.6 -47.7,13.8 -14.4,17.5 -16.3,39.7 -4.2,49.5 11.9,9.9 33.3,3.7 47.7,-13.8 14.3,-17.4 16.2,-39.6 4.2,-49.5 z" />
      </g>
      <g
         id="g189">
        <text
           id="text191"
           transform="matrix(1,0,0,-1,658.4,245.8)">
          <tspan
             style="font-size:16px;font-variant:normal;writing-mode:lr-tb;fill:#808080;fill-opacity:1;fill-rule:nonzero;stroke:none;font-family:NimbusSanL;-inkscape-font-specification:NimbusSanL-Regu"
             id="tspan193"
             y="0"
             x="0 9.6960001">TM</tspan>
        </text>
      </g>
      <path
         inkscape:connector-curvature="0"
         style="fill:#0000ff;fill-opacity:1;fill-rule:evenodd;stroke:none"
         id="path195"
         d="m 722.4,447.3 c -6.1,-4.2 -19.3,4.3 -29.6,19.1 -10.4,14.7 -13.8,30.1 -7.8,34.3 6,4.2 19.3,-4.3 29.6,-19.1 10.3,-14.7 13.8,-30.1 7.8,-34.3 z" />
      <g
         id="g197">
        <path
           inkscape:connector-curvature="0"
           style="fill:none;stroke:none"
           id="path199"
           d="m 722.4,447.3 c -6.1,-4.2 -19.3,4.3 -29.6,19.1 -10.4,14.7 -13.8,30.1 -7.8,34.3 6,4.2 19.3,-4.3 29.6,-19.1 10.3,-14.7 13.8,-30.1 7.8,-34.3 z" />
      </g>
    </g>
  </g>
  <!-- end of original group -->
</svg>
