<?xml version="1.0" encoding="utf-8"?>
<!-- Generator: Adobe Illustrator 22.0.1, SVG Export Plug-In . SVG Version: 6.00 Build 0)  -->
<svg version="1.1" id="Layer_1" xmlns:svg="http://www.w3.org/2000/svg"
	 xmlns="http://www.w3.org/2000/svg" xmlns:xlink="http://www.w3.org/1999/xlink" x="0px" y="0px"
	 viewBox="146.887 35.071 679.648 628.263" enable-background="new 146.887 35.071 679.648 628.263" xml:space="preserve">
<g opacity="0.12">

		<rect x="341.717" y="326.778" transform="matrix(0.4226 -0.9063 0.9063 0.4226 -99.8267 501.2325)" stroke="#000000" stroke-width="1.0588" stroke-miterlimit="10" width="3.516" height="4.372"/>
	<path id="path21" d="M287.307,517.452c-64.033,12.72-125.053-23.075-136.347-80.045c-11.248-56.844,31.519-113.25,95.512-125.885
		c63.946-12.76,125.053,23.075,136.301,79.919C394.067,448.412,351.299,504.818,287.307,517.452z"/>
	<path id="path25" fill="none" stroke="#000000" stroke-width="4.5546" stroke-linejoin="round" stroke-miterlimit="10" d="
		M287.307,517.452c-64.033,12.72-125.053-23.075-136.347-80.045c-11.248-56.844,31.519-113.25,95.512-125.885
		c63.946-12.76,125.053,23.075,136.301,79.919C394.067,448.412,351.299,504.818,287.307,517.452z"/>
	<path id="path27" d="M440.826,119.408c39.107,71.093,19.552,156.886-43.71,191.57c-63.176,34.724-146.095,5.182-185.117-65.871
		c-39.108-71.093-19.512-156.973,43.664-191.696C318.925,18.728,401.758,48.229,440.826,119.408z"/>
	<path id="path31" fill="none" stroke="#000000" stroke-width="7.611" stroke-linejoin="round" stroke-miterlimit="10" d="
		M440.826,119.408c39.107,71.093,19.552,156.886-43.71,191.57c-63.176,34.724-146.095,5.182-185.117-65.871
		c-39.108-71.093-19.512-156.973,43.664-191.696C318.925,18.728,401.758,48.229,440.826,119.408z"/>
	<path id="path33" fill="#00FF00" d="M327.422,226.986c-13.709-28.626,1.468-64.548,33.873-80.061
		c32.53-15.559,69.983-5.016,83.652,23.696c13.795,28.667-1.342,64.502-33.872,80.061
		C378.63,266.282,341.217,255.652,327.422,226.986z"/>
	<path id="path37" fill="none" d="M327.422,226.986c-13.709-28.626,1.468-64.548,33.873-80.061
		c32.53-15.559,69.983-5.016,83.652,23.696c13.795,28.667-1.342,64.502-33.872,80.061
		C378.63,266.282,341.217,255.652,327.422,226.986z"/>
	<path id="path39" d="M310.944,213.744c-13.755-28.753,1.382-64.588,33.827-80.187c32.53-15.559,70.029-4.89,83.738,23.736
		c13.795,28.667-1.382,64.588-33.912,80.147C362.152,253.04,324.653,242.37,310.944,213.744z"/>
	<path id="path43" fill="none" d="M310.944,213.744c-13.755-28.753,1.382-64.588,33.827-80.187
		c32.53-15.559,70.029-4.89,83.738,23.736c13.795,28.667-1.382,64.588-33.912,80.147C362.152,253.04,324.653,242.37,310.944,213.744
		z"/>
	<path id="path47" fill="none" stroke="#0000FF" stroke-width="22.8331" stroke-linejoin="round" stroke-miterlimit="10" d="
		M331.586,290.7c-24.709-40.572-65.605-82.191-72.02-123.986c-4.804-31.081-18.469-48.78,11.408-63.373
		c28.414-13.703,49.579-32.779,76.581-25.013c26.488,16.966,47.289,29.707,50.718,69.585c-10.664,17.471-22.618,59.3-55.203,66.654
		l-52.16,3.679"/>
	<path id="path49" fill="#FF3366" d="M306.479,185.758c-20.502-9.56-29.535-33.594-20.136-53.752
		c9.4-20.158,33.617-28.686,54.119-19.126c20.502,9.56,29.536,33.594,20.137,53.752C351.2,186.79,326.982,195.319,306.479,185.758z"
		/>
	<path id="path53" fill="none" d="M306.479,185.758c-20.502-9.56-29.535-33.594-20.136-53.752
		c9.4-20.158,33.617-28.686,54.119-19.126c20.502,9.56,29.536,33.594,20.137,53.752C351.2,186.79,326.982,195.319,306.479,185.758z"
		/>
	<path id="path55" fill="#0000FF" d="M330.41,177.62c-10.599,2.713-21.494-3.835-24.299-14.687
		c-2.806-10.852,3.571-21.827,14.256-24.5c10.599-2.713,21.494,3.835,24.213,14.647C347.386,163.932,341.01,174.907,330.41,177.62z"
		/>
	<path id="path59" fill="none" d="M330.41,177.62c-10.599,2.713-21.494-3.835-24.299-14.687c-2.806-10.852,3.571-21.827,14.256-24.5
		c10.599-2.713,21.494,3.835,24.213,14.647C347.386,163.932,341.01,174.907,330.41,177.62z"/>
	<path id="path63" fill="none" stroke="#0000FF" stroke-width="22.8331" stroke-linejoin="round" stroke-miterlimit="10" d="
		M333.649,294.598c-24.755-40.699-79.026-66.006-85.48-107.715c-4.763-31.167-17.983-74.562,11.854-89.069
		c30.129-19.406,60.893-28.028,88.372-15.214c26.614,16.92,50.629,41.438,47.157,66.876c-10.618,17.597-20.445,48.567-53.029,55.921
		l-53.525,12.901"/>
	<path id="path65" fill="#0000FF" d="M345.42,311.413c-4.547,3.229-14.546-3.217-22.289-14.274
		c-7.83-11.097-10.4-22.678-5.853-25.906c4.593-3.102,14.546,3.217,22.375,14.314C347.356,296.69,350.053,308.225,345.42,311.413z"
		/>
	<path id="path69" fill="none" d="M345.42,311.413c-4.547,3.229-14.546-3.217-22.289-14.274c-7.83-11.097-10.4-22.678-5.853-25.906
		c4.593-3.102,14.546,3.217,22.375,14.314C347.356,296.69,350.053,308.225,345.42,311.413z"/>
	<path id="path71" d="M638.408,495.23c31.369,57.102,15.611,126.207-35.251,154.089c-50.901,27.968-117.546,4.232-149-52.91
		c-31.329-57.188-15.61-126.207,35.251-154.088C540.309,414.352,606.994,438.002,638.408,495.23z"/>
	<path id="path75" fill="none" stroke="#000000" stroke-width="4.5546" stroke-linejoin="round" stroke-miterlimit="10" d="
		M638.408,495.23c31.369,57.102,15.611,126.207-35.251,154.089c-50.901,27.968-117.546,4.232-149-52.91
		c-31.329-57.188-15.61-126.207,35.251-154.088C540.309,414.352,606.994,438.002,638.408,495.23z"/>
	<path id="path77" fill="#FFFF00" d="M404.068,481.392c-55.132-25.709-83.124-82.18-62.557-126.285
		c20.527-44.02,81.819-58.962,136.951-33.253c55.132,25.708,83.084,82.266,62.557,126.286
		C520.453,492.244,459.2,507.1,404.068,481.392z"/>
	<path id="path81" fill="none" stroke="#000000" stroke-width="9.1392" stroke-linejoin="round" stroke-miterlimit="10" d="
		M404.068,481.392c-55.132-25.709-83.124-82.18-62.557-126.285c20.527-44.02,81.819-58.962,136.951-33.253
		c55.132,25.708,83.084,82.266,62.557,126.286C520.453,492.244,459.2,507.1,404.068,481.392z"/>
	<path id="path83" fill="#FFFFFF" d="M373.309,368.78c-22.053-10.284-31.529-36.516-21.286-58.483
		c10.284-22.053,36.43-31.57,58.483-21.286c22.053,10.283,31.656,36.47,21.372,58.523
		C421.635,369.501,395.362,379.064,373.309,368.78z"/>
	<path id="path87" fill="none" stroke="#000000" stroke-width="10.6674" stroke-linejoin="round" stroke-miterlimit="10" d="
		M373.309,368.78c-22.053-10.284-31.529-36.516-21.286-58.483c10.284-22.053,36.43-31.57,58.483-21.286
		c22.053,10.283,31.656,36.47,21.372,58.523C421.635,369.501,395.362,379.064,373.309,368.78z"/>
	<path id="path89" d="M702.578,479.741c-79.047,15.683-154.46-28.607-168.371-98.858c-13.998-70.291,38.827-139.942,117.915-155.71
		c79.046-15.682,154.46,28.608,168.371,98.858C834.45,394.409,781.625,464.06,702.578,479.741z"/>
	<path id="path93" fill="none" stroke="#000000" stroke-width="7.611" stroke-linejoin="round" stroke-miterlimit="10" d="
		M702.578,479.741c-79.047,15.683-154.46-28.607-168.371-98.858c-13.998-70.291,38.827-139.942,117.915-155.71
		c79.046-15.682,154.46,28.608,168.371,98.858C834.45,394.409,781.625,464.06,702.578,479.741z"/>
	<path id="path95" fill="#00FF00" d="M731.211,452.297c-30.615,7.853-62.593-13.981-71.492-48.649
		c-8.9-34.668,8.655-69.167,39.27-77.019c30.615-7.853,62.634,13.895,71.493,48.649
		C779.382,409.946,761.826,444.444,731.211,452.297z"/>
	<path id="path99" fill="none" d="M731.211,452.297c-30.615,7.853-62.593-13.981-71.492-48.649
		c-8.9-34.668,8.655-69.167,39.27-77.019c30.615-7.853,62.634,13.895,71.493,48.649
		C779.382,409.946,761.826,444.444,731.211,452.297z"/>
	<path id="path101" d="M712.776,443.701c-30.614,7.853-62.593-13.98-71.491-48.649c-8.9-34.668,8.656-69.166,39.23-76.933
		c30.615-7.853,62.634,13.895,71.533,48.563C760.947,401.35,743.305,435.808,712.776,443.701z"/>
	<path id="path105" fill="none" d="M712.776,443.701c-30.614,7.853-62.593-13.98-71.491-48.649
		c-8.9-34.668,8.656-69.166,39.23-76.933c30.615-7.853,62.634,13.895,71.533,48.563C760.947,401.35,743.305,435.808,712.776,443.701
		z"/>
	<path id="path109" fill="none" stroke="#0000FF" stroke-width="22.8331" stroke-linejoin="round" stroke-miterlimit="10" d="
		M789.433,343.633c7.833-57.28-69.507-72.474-103.424-67.21c-46.75,7.146-40.062,4.496-75.909,26.27
		c-26.81,16.339-32.783,51.414-24.763,83.47c7.547,30.368,19.437,23.536,49.248,32.928c29.81,9.391,37.918,12.018,55.007-6.861
		c21.422-23.676,7.193-65.13-8.027-94.565l-18.155-31.014"/>
	<path id="path111" fill="#FF3366" d="M623.885,391.658c-18.09-8.436-25.74-30.041-17.183-48.39
		c8.556-18.348,30.024-26.376,48.114-17.941c18.004,8.395,25.652,30,17.096,48.349C663.356,392.025,641.889,400.053,623.885,391.658
		z"/>
	<path id="path115" fill="none" d="M623.885,391.658c-18.09-8.436-25.74-30.041-17.183-48.39
		c8.556-18.348,30.024-26.376,48.114-17.941c18.004,8.395,25.652,30,17.096,48.349C663.356,392.025,641.889,400.053,623.885,391.658
		z"/>
	<path id="path117" fill="#0000FF" d="M641.93,382.873c-10.559,2.627-21.367-3.882-24.087-14.693
		c-2.759-10.725,3.53-21.741,14.003-24.408c10.513-2.754,21.368,3.881,24.127,14.606C658.693,369.19,652.443,380.119,641.93,382.873
		z"/>
	<path id="path121" fill="none" d="M641.93,382.873c-10.559,2.627-21.367-3.882-24.087-14.693
		c-2.759-10.725,3.53-21.741,14.003-24.408c10.513-2.754,21.368,3.881,24.127,14.606C658.693,369.19,652.443,380.119,641.93,382.873
		z"/>
	<path id="path125" fill="none" stroke="#0000FF" stroke-width="22.8331" stroke-linejoin="round" stroke-miterlimit="10" d="
		M794.894,344.292c7.833-57.28-81.53-87.623-115.447-82.36c-46.75,7.146-39.326,4.944-75.174,26.718
		c-26.77,16.253-32.613,65.441-24.594,97.497c7.549,30.368,22.886,31.437,52.61,40.788c29.81,9.391,39.309,14.659,56.524-4.266
		c21.383-23.589,32.167-59.986,16.902-89.548l-42.305-46.47"/>
	<path id="path127" fill="#FFFFFF" d="M505.367,430.36c-22.053-10.283-31.615-36.556-21.372-58.523
		c10.284-22.053,36.516-31.53,58.569-21.246c22.053,10.284,31.569,36.43,21.286,58.483
		C553.607,431.041,527.42,440.644,505.367,430.36z"/>
	<path id="path131" fill="none" stroke="#000000" stroke-width="10.6674" stroke-linejoin="round" stroke-miterlimit="10" d="
		M505.367,430.36c-22.053-10.283-31.615-36.556-21.372-58.523c10.284-22.053,36.516-31.53,58.569-21.246
		c22.053,10.284,31.569,36.43,21.286,58.483C553.607,431.041,527.42,440.644,505.367,430.36z"/>
	<path id="path133" d="M383.875,349.271c-11.027-5.142-15.808-18.278-10.666-29.304c5.142-11.027,18.278-15.808,29.305-10.666
		c11.026,5.142,15.722,18.238,10.58,29.265C407.952,349.591,394.901,354.413,383.875,349.271z"/>
	<path id="path137" fill="none" d="M383.875,349.271c-11.027-5.142-15.808-18.278-10.666-29.304
		c5.142-11.027,18.278-15.808,29.305-10.666c11.026,5.142,15.722,18.238,10.58,29.265
		C407.952,349.591,394.901,354.413,383.875,349.271z"/>
	<path id="path139" d="M517.236,408.732c-11.113-5.182-15.808-18.279-10.707-29.219c5.142-11.026,18.152-15.761,29.265-10.579
		c11.026,5.142,15.762,18.152,10.62,29.178C541.313,409.052,528.262,413.874,517.236,408.732z"/>
	<path id="path143" fill="none" d="M517.236,408.732c-11.113-5.182-15.808-18.279-10.707-29.219
		c5.142-11.026,18.152-15.761,29.265-10.579c11.026,5.142,15.762,18.152,10.62,29.178
		C541.313,409.052,528.262,413.874,517.236,408.732z"/>
	<path id="path147" fill="none" stroke="#FF3366" stroke-width="13.6939" stroke-linejoin="round" stroke-miterlimit="10" d="
		M397.357,406.947c-16.697,25.46,53.443,82.183,63.645,35.342l1.085-2.326"/>
	<path id="path151" fill="none" stroke="#000000" stroke-width="10.6674" stroke-linejoin="round" stroke-miterlimit="10" d="
		M466.379,315.38c8.486-22.471,27.9-43.413,27.352-68.104l0.923-23.795l-19.37,13.201l7.592,5.533"/>
	<path id="path155" fill="none" stroke="#000000" stroke-width="10.6674" stroke-linejoin="round" stroke-miterlimit="10" d="
		M490.672,326.708c11.759-20.945,15.236-49.318,34.503-64.77l17.635-16.003l2.338,23.324l-9.12-2.26"/>
	<path id="path157" fill="#FF3366" d="M190.744,447.674c-14.117-29.55,2.34-66.868,36.84-83.501
		c34.546-16.508,73.997-5.976,88.201,23.614c14.117,29.551-2.341,66.868-36.886,83.375
		C244.399,487.795,204.947,477.264,190.744,447.674z"/>
	<path id="path161" fill="none" d="M190.744,447.674c-14.117-29.55,2.34-66.868,36.84-83.501
		c34.546-16.508,73.997-5.976,88.201,23.614c14.117,29.551-2.341,66.868-36.886,83.375
		C244.399,487.795,204.947,477.264,190.744,447.674z"/>
	<path id="path165" fill="none" stroke="#000000" stroke-width="9.1392" stroke-linejoin="round" stroke-miterlimit="10" d="
		M382.992,472.613l-12.01,25.756l3.201,30.02l0,0"/>
	<path id="path169" fill="none" stroke="#000000" stroke-width="9.1392" stroke-linejoin="round" stroke-miterlimit="10" d="
		M414.434,487.275l-12.05,25.842l3.201,30.02l0,0"/>
	<path id="path171" fill="#0000FF" d="M231.881,429.626c-6.401-13.263,4.154-31.624,23.588-40.914
		c19.474-9.377,40.314-6.162,46.76,7.227c6.314,13.222-4.24,31.583-23.628,41C259.167,446.229,238.241,442.974,231.881,429.626z"/>
	<path id="path175" fill="none" d="M231.881,429.626c-6.401-13.263,4.154-31.624,23.588-40.914
		c19.474-9.377,40.314-6.162,46.76,7.227c6.314,13.222-4.24,31.583-23.628,41C259.167,446.229,238.241,442.974,231.881,429.626z"/>
	<path id="path177" fill="#FF3366" d="M565.86,622.698c-31.798,8.139-65.223-15.313-74.743-52.473
		c-9.474-37.034,8.574-73.714,40.245-81.808c31.797-8.14,65.224,15.313,74.784,52.386
		C615.579,577.923,597.571,614.518,565.86,622.698z"/>
	<path id="path181" fill="none" d="M565.86,622.698c-31.798,8.139-65.223-15.313-74.743-52.473
		c-9.474-37.034,8.574-73.714,40.245-81.808c31.797-8.14,65.224,15.313,74.784,52.386
		C615.579,577.923,597.571,614.518,565.86,622.698z"/>
	<path id="path183" fill="#0000FF" d="M549.057,580.463c-14.274,3.623-30.218-10.315-35.548-31.048
		c-5.375-20.86,1.907-40.746,16.266-44.328c14.228-3.749,30.173,10.189,35.547,31.049
		C570.652,556.869,563.372,576.756,549.057,580.463z"/>
	<path id="path187" fill="none" d="M549.057,580.463c-14.274,3.623-30.218-10.315-35.548-31.048
		c-5.375-20.86,1.907-40.746,16.266-44.328c14.228-3.749,30.173,10.189,35.547,31.049
		C570.652,556.869,563.372,576.756,549.057,580.463z"/>

		<text transform="matrix(0.9063 0.4226 -0.4226 0.9063 660.7561 513.2013)" fill="#808080" font-family="'ArialMT'" font-size="15.2079px">T</text>

		<text transform="matrix(0.9063 0.4226 -0.4226 0.9063 669.1085 517.0961)" fill="#808080" font-family="'ArialMT'" font-size="15.2079px">M</text>
	<path id="path195" fill="#0000FF" d="M796.83,365.331c-6.942,1.168-14.899-11.457-17.826-28.344
		c-3.054-16.84,0.203-31.472,7.058-32.68c6.856-1.207,14.899,11.457,17.826,28.344C806.857,349.451,803.686,364.123,796.83,365.331z
		"/>
	<path id="path199" fill="none" d="M796.83,365.331c-6.942,1.168-14.899-11.457-17.826-28.344
		c-3.054-16.84,0.203-31.472,7.058-32.68c6.856-1.207,14.899,11.457,17.826,28.344C806.857,349.451,803.686,364.123,796.83,365.331z
		"/>

		<rect x="551.153" y="428.32" transform="matrix(0.4226 -0.9063 0.9063 0.4226 -70.9303 749.6747)" stroke="#000000" stroke-width="1.0588" stroke-miterlimit="10" width="3.517" height="4.372"/>
</g>
</svg>
